<?xml version="1.0" encoding="UTF-8"?>
<svg id="Ebene_2" data-name="Ebene 2" xmlns="http://www.w3.org/2000/svg" xmlns:xlink="http://www.w3.org/1999/xlink" viewBox="0 0 593.71 63.6">
  <defs>
    <style>
      .cls-1 {
        fill: none;
      }

      .cls-2 {
        clip-path: url(#clippath);
      }

      .cls-3 {
        fill: #1d1d1b;
      }

      .cls-4 {
        clip-path: url(#clippath-1);
      }

      .cls-5 {
        clip-path: url(#clippath-2);
      }
    </style>
    <clipPath id="clippath">
      <rect class="cls-1" width="593.71" height="63.6"/>
    </clipPath>
    <clipPath id="clippath-1">
      <rect class="cls-1" width="593.71" height="63.6"/>
    </clipPath>
    <clipPath id="clippath-2">
      <rect class="cls-1" width="593.71" height="63.6"/>
    </clipPath>
  </defs>
  <g id="Ebene_1-2" data-name="Ebene 1">
    <path class="cls-3" d="M85.51,41.14l7.69-19.81,7.52,19.81h-15.21Zm37.68,21.58L98.51,.81h-10.61l-24.59,61.91h13.89l3.98-10.35h23.88l3.89,10.35h14.24"/>
    <polyline class="cls-3" points="180.15 .81 167.06 .81 167.06 36.89 141.85 .81 130.71 .81 130.71 62.72 143.8 62.72 143.8 26.63 169.18 62.72 180.15 62.72"/>
    <polyline class="cls-3" points="189.74 .56 190.37 22.23 201.21 22.23 201.66 .55"/>
    <polygon class="cls-3" points="260.18 .81 210.92 .81 210.92 13.37 228.96 13.37 228.96 62.72 242.05 62.72 242.05 13.37 260.18 13.37 260.18 .81"/>
    <g class="cls-2">
      <path class="cls-3" d="M314.96,50.16h-9.02V13.37h9.02c9.91,0,16.98,7.61,16.98,18.13s-7.16,18.66-16.98,18.66m-.88-49.35h-21.23V62.72h21.23c17.87,0,31.4-13.27,31.4-31.22S331.94,.81,314.07,.81"/>
    </g>
    <polygon class="cls-3" points="354.67 .81 354.67 62.72 392.61 62.72 392.61 50.16 367.75 50.16 367.75 37.07 389.87 37.07 389.87 24.51 367.75 24.51 367.75 13.37 392.61 13.37 392.61 .81 354.67 .81"/>
    <rect class="cls-3" x="470.24" y=".81" width="13.09" height="61.91"/>
    <g class="cls-4">
      <path class="cls-3" d="M516.48,50.16h-9.02V13.37h9.02c9.91,0,16.98,7.61,16.98,18.13s-7.16,18.66-16.98,18.66m-.88-49.35h-21.23V62.72h21.23c17.87,0,31.4-13.27,31.4-31.22s-13.53-30.69-31.4-30.69"/>
    </g>
    <polygon class="cls-3" points="555.76 .81 555.76 62.72 593.71 62.72 593.71 50.16 568.85 50.16 568.85 37.07 590.96 37.07 590.96 24.51 568.85 24.51 568.85 13.37 593.71 13.37 593.71 .81 555.76 .81"/>
    <g class="cls-5">
      <path class="cls-3" d="M13.43,31.8c0-10.87,7.77-19.08,18.11-19.08,7.69,0,13.96,4.55,16.66,11.35h14.09C59.03,9.94,46.89,0,31.54,0,13.52,0,0,13.69,0,31.8s13.52,31.8,31.54,31.8c16.28,0,28.96-11.18,31.25-26.7h-13.75c-2.01,8.23-8.86,13.98-17.5,13.98-10.34,0-18.11-8.22-18.11-19.08"/>
      <path class="cls-3" d="M413.06,31.8c0-10.87,7.77-19.08,18.11-19.08,7.69,0,13.96,4.55,16.66,11.35h14.09C458.67,9.94,446.52,0,431.17,0c-18.02,0-31.54,13.69-31.54,31.8s13.52,31.8,31.54,31.8c16.28,0,28.96-11.18,31.25-26.7h-13.75c-2.01,8.23-8.86,13.98-17.5,13.98-10.34,0-18.11-8.22-18.11-19.08"/>
    </g>
  </g>
</svg>